<svg width="42" height="42" viewBox="0 0 42 42" fill="current" stroke="current" xmlns="http://www.w3.org/2000/svg">
<path d="M10.8511 36.75H3.23203V12.2145H10.8511V36.75ZM7.03746 8.86761C4.60113 8.86761 2.625 6.84964 2.625 4.41332C2.625 3.24306 3.08988 2.12073 3.91738 1.29323C4.74488 0.465737 5.8672 0.000854492 7.03746 0.000854492C8.20772 0.000854492 9.33004 0.465737 10.1575 1.29323C10.985 2.12073 11.4499 3.24306 11.4499 4.41332C11.4499 6.84964 9.47297 8.86761 7.03746 8.86761ZM39.3668 36.75H31.7641V24.8063C31.7641 21.9598 31.7067 18.3094 27.8029 18.3094C23.8416 18.3094 23.2345 21.402 23.2345 24.6012V36.75H15.6237V12.2145H22.931V15.5614H23.0377C24.0548 13.6336 26.5396 11.5993 30.2466 11.5993C37.9575 11.5993 39.375 16.677 39.375 23.2723V36.75H39.3668Z" fill="current"/>
</svg>
